<?xml version="1.0" encoding="utf-8"?>
<!-- Generator: Adobe Illustrator 21.0.0, SVG Export Plug-In . SVG Version: 6.00 Build 0)  -->
<svg version="1.1" id="Layer_1" xmlns="http://www.w3.org/2000/svg" xmlns:xlink="http://www.w3.org/1999/xlink" x="0px" y="0px"
	 viewBox="0 0 612 792" style="enable-background:new 0 0 612 792;" xml:space="preserve">
<style type="text/css">
	.st0{stroke:#000000;stroke-width:2.2201;stroke-linecap:square;}
	.st1{fill:#FFFFFF;stroke:#000000;stroke-width:2.2201;stroke-linecap:square;}
	.st2{font-family:'CourierNewPSMT';}
	.st3{font-size:64px;}
	.st4{font-family:'TimesNewRomanPSMT';}
	.st5{font-size:36px;}
	.st6{enable-background:new    ;}
</style>
<g>
	<polyline class="st0" points="0,0 0,100 100,100 100,0 	"/>
	<polygon class="st0" points="0,0 0,100 100,100 100,0 	"/>
</g>
<g>
	<polyline class="st0" points="100,0 100,100 200,100 200,0 	"/>
	<polygon class="st0" points="100,0 100,100 200,100 200,0 	"/>
</g>
<g>
	<polyline class="st0" points="200,0 200,100 300,100 300,0 	"/>
	<polygon class="st0" points="200,0 200,100 300,100 300,0 	"/>
</g>
<g>
	<polyline class="st0" points="300,0 300,100 400,100 400,0 	"/>
	<polygon class="st0" points="300,0 300,100 400,100 400,0 	"/>
</g>
<g>
	<polyline class="st0" points="400,0 400,100 500,100 500,0 	"/>
	<polygon class="st0" points="400,0 400,100 500,100 500,0 	"/>
</g>
<g>
	<polyline class="st1" points="500,0 500,100 600,100 600,0 	"/>
	<polygon class="st1" points="500,0 500,100 600,100 600,0 	"/>
	<text transform="matrix(1 0 0 1 530 70)" class="st2 st3">g</text>
	<text transform="matrix(1 0 0 1 511 33)" class="st4 st5">1</text>
</g>
<g>
	<polyline class="st0" points="600,0 600,100 700,100 700,0 	"/>
	<polygon class="st0" points="600,0 600,100 700,100 700,0 	"/>
</g>
<g>
	<polyline class="st0" points="700,0 700,100 800,100 800,0 	"/>
	<polygon class="st0" points="700,0 700,100 800,100 800,0 	"/>
</g>
<g>
	<polyline class="st0" points="800,0 800,100 900,100 900,0 	"/>
	<polygon class="st0" points="800,0 800,100 900,100 900,0 	"/>
</g>
<g>
	<polyline class="st0" points="900,0 900,100 1000,100 1000,0 	"/>
	<polygon class="st0" points="900,0 900,100 1000,100 1000,0 	"/>
</g>
<g>
	<polyline class="st0" points="1000,0 1000,100 1100,100 1100,0 	"/>
	<polygon class="st0" points="1000,0 1000,100 1100,100 1100,0 	"/>
</g>
<g>
	<polyline class="st0" points="1100,0 1100,100 1200,100 1200,0 	"/>
	<polygon class="st0" points="1100,0 1100,100 1200,100 1200,0 	"/>
</g>
<g>
	<polyline class="st0" points="1200,0 1200,100 1300,100 1300,0 	"/>
	<polygon class="st0" points="1200,0 1200,100 1300,100 1300,0 	"/>
</g>
<g>
	<polyline class="st1" points="1300,0 1300,100 1400,100 1400,0 	"/>
	<polygon class="st1" points="1300,0 1300,100 1400,100 1400,0 	"/>
	<text transform="matrix(1 0 0 1 1330 70)" class="st2 st3">t</text>
	<text transform="matrix(1 0 0 1 1311 33)" class="st4 st5">2</text>
</g>
<g>
	<polyline class="st0" points="1400,0 1400,100 1500,100 1500,0 	"/>
	<polygon class="st0" points="1400,0 1400,100 1500,100 1500,0 	"/>
</g>
<g>
	<polyline class="st1" points="1500,0 1500,100 1600,100 1600,0 	"/>
	<polygon class="st1" points="1500,0 1500,100 1600,100 1600,0 	"/>
	<text transform="matrix(1 0 0 1 1530 70)" class="st2 st3">p</text>
	<text transform="matrix(1 0 0 1 1511 33)" class="st4 st5">3</text>
</g>
<g>
	<polyline class="st0" points="1600,0 1600,100 1700,100 1700,0 	"/>
	<polygon class="st0" points="1600,0 1600,100 1700,100 1700,0 	"/>
</g>
<g>
	<polyline class="st0" points="1700,0 1700,100 1800,100 1800,0 	"/>
	<polygon class="st0" points="1700,0 1700,100 1800,100 1800,0 	"/>
</g>
<g>
	<polyline class="st0" points="1800,0 1800,100 1900,100 1900,0 	"/>
	<polygon class="st0" points="1800,0 1800,100 1900,100 1900,0 	"/>
</g>
<g>
	<polyline class="st0" points="1900,0 1900,100 2000,100 2000,0 	"/>
	<polygon class="st0" points="1900,0 1900,100 2000,100 2000,0 	"/>
</g>
<g>
	<polyline class="st0" points="0,100 0,200 100,200 100,100 	"/>
	<polygon class="st0" points="0,100 0,200 100,200 100,100 	"/>
</g>
<g>
	<polyline class="st0" points="100,100 100,200 200,200 200,100 	"/>
	<polygon class="st0" points="100,100 100,200 200,200 200,100 	"/>
</g>
<g>
	<polyline class="st0" points="200,100 200,200 300,200 300,100 	"/>
	<polygon class="st0" points="200,100 200,200 300,200 300,100 	"/>
</g>
<g>
	<polyline class="st0" points="300,100 300,200 400,200 400,100 	"/>
	<polygon class="st0" points="300,100 300,200 400,200 400,100 	"/>
</g>
<g>
	<polyline class="st0" points="400,100 400,200 500,200 500,100 	"/>
	<polygon class="st0" points="400,100 400,200 500,200 500,100 	"/>
</g>
<g>
	<polyline class="st1" points="500,100 500,200 600,200 600,100 	"/>
	<polygon class="st1" points="500,100 500,200 600,200 600,100 	"/>
	<text transform="matrix(1 0 0 1 530 170)" class="st2 st3">a</text>
</g>
<g>
	<polyline class="st0" points="600,100 600,200 700,200 700,100 	"/>
	<polygon class="st0" points="600,100 600,200 700,200 700,100 	"/>
</g>
<g>
	<polyline class="st0" points="700,100 700,200 800,200 800,100 	"/>
	<polygon class="st0" points="700,100 700,200 800,200 800,100 	"/>
</g>
<g>
	<polyline class="st0" points="800,100 800,200 900,200 900,100 	"/>
	<polygon class="st0" points="800,100 800,200 900,200 900,100 	"/>
</g>
<g>
	<polyline class="st0" points="900,100 900,200 1000,200 1000,100 	"/>
	<polygon class="st0" points="900,100 900,200 1000,200 1000,100 	"/>
</g>
<g>
	<polyline class="st1" points="1000,100 1000,200 1100,200 1100,100 	"/>
	<polygon class="st1" points="1000,100 1000,200 1100,200 1100,100 	"/>
	<text transform="matrix(1 0 0 1 1030 170)" class="st2 st3">e</text>
	<text transform="matrix(1 0 0 1 1011 133)" class="st4 st5">4</text>
</g>
<g>
	<polyline class="st1" points="1100,100 1100,200 1200,200 1200,100 	"/>
	<polygon class="st1" points="1100,100 1100,200 1200,200 1200,100 	"/>
	<text transform="matrix(1 0 0 1 1130 170)" class="st2 st3">m</text>
</g>
<g>
	<polyline class="st1" points="1200,100 1200,200 1300,200 1300,100 	"/>
	<polygon class="st1" points="1200,100 1200,200 1300,200 1300,100 	"/>
	<text transform="matrix(1 0 0 1 1230 170)" class="st2 st3">p</text>
</g>
<g>
	<polyline class="st1" points="1300,100 1300,200 1400,200 1400,100 	"/>
	<polygon class="st1" points="1300,100 1300,200 1400,200 1400,100 	"/>
	<text transform="matrix(1 0 0 1 1330 170)" class="st2 st3">i</text>
</g>
<g>
	<polyline class="st1" points="1400,100 1400,200 1500,200 1500,100 	"/>
	<polygon class="st1" points="1400,100 1400,200 1500,200 1500,100 	"/>
	<text transform="matrix(1 0 0 1 1430 170)" class="st2 st3">r</text>
</g>
<g>
	<polyline class="st1" points="1500,100 1500,200 1600,200 1600,100 	"/>
	<polygon class="st1" points="1500,100 1500,200 1600,200 1600,100 	"/>
	<text transform="matrix(1 0 0 1 1530 170)" class="st2 st3">e</text>
</g>
<g>
	<polyline class="st0" points="1600,100 1600,200 1700,200 1700,100 	"/>
	<polygon class="st0" points="1600,100 1600,200 1700,200 1700,100 	"/>
</g>
<g>
	<polyline class="st0" points="1700,100 1700,200 1800,200 1800,100 	"/>
	<polygon class="st0" points="1700,100 1700,200 1800,200 1800,100 	"/>
</g>
<g>
	<polyline class="st0" points="1800,100 1800,200 1900,200 1900,100 	"/>
	<polygon class="st0" points="1800,100 1800,200 1900,200 1900,100 	"/>
</g>
<g>
	<polyline class="st0" points="1900,100 1900,200 2000,200 2000,100 	"/>
	<polygon class="st0" points="1900,100 1900,200 2000,200 2000,100 	"/>
</g>
<g>
	<polyline class="st0" points="0,200 0,300 100,300 100,200 	"/>
	<polygon class="st0" points="0,200 0,300 100,300 100,200 	"/>
</g>
<g>
	<polyline class="st0" points="100,200 100,300 200,300 200,200 	"/>
	<polygon class="st0" points="100,200 100,300 200,300 200,200 	"/>
</g>
<g>
	<polyline class="st0" points="200,200 200,300 300,300 300,200 	"/>
	<polygon class="st0" points="200,200 200,300 300,300 300,200 	"/>
</g>
<g>
	<polyline class="st0" points="300,200 300,300 400,300 400,200 	"/>
	<polygon class="st0" points="300,200 300,300 400,300 400,200 	"/>
</g>
<g>
	<polyline class="st0" points="400,200 400,300 500,300 500,200 	"/>
	<polygon class="st0" points="400,200 400,300 500,300 500,200 	"/>
</g>
<g>
	<polyline class="st1" points="500,200 500,300 600,300 600,200 	"/>
	<polygon class="st1" points="500,200 500,300 600,300 600,200 	"/>
	<text transform="matrix(1 0 0 1 530 270)" class="st2 st3">l</text>
</g>
<g>
	<polyline class="st0" points="600,200 600,300 700,300 700,200 	"/>
	<polygon class="st0" points="600,200 600,300 700,300 700,200 	"/>
</g>
<g>
	<polyline class="st0" points="700,200 700,300 800,300 800,200 	"/>
	<polygon class="st0" points="700,200 700,300 800,300 800,200 	"/>
</g>
<g>
	<polyline class="st0" points="800,200 800,300 900,300 900,200 	"/>
	<polygon class="st0" points="800,200 800,300 900,300 900,200 	"/>
</g>
<g>
	<polyline class="st0" points="900,200 900,300 1000,300 1000,200 	"/>
	<polygon class="st0" points="900,200 900,300 1000,300 1000,200 	"/>
</g>
<g>
	<polyline class="st0" points="1000,200 1000,300 1100,300 1100,200 	"/>
	<polygon class="st0" points="1000,200 1000,300 1100,300 1100,200 	"/>
</g>
<g>
	<polyline class="st0" points="1100,200 1100,300 1200,300 1200,200 	"/>
	<polygon class="st0" points="1100,200 1100,300 1200,300 1200,200 	"/>
</g>
<g>
	<polyline class="st0" points="1200,200 1200,300 1300,300 1300,200 	"/>
	<polygon class="st0" points="1200,200 1200,300 1300,300 1300,200 	"/>
</g>
<g>
	<polyline class="st1" points="1300,200 1300,300 1400,300 1400,200 	"/>
	<polygon class="st1" points="1300,200 1300,300 1400,300 1400,200 	"/>
	<text transform="matrix(1 0 0 1 1330 270)" class="st2 st3">m</text>
</g>
<g>
	<polyline class="st0" points="1400,200 1400,300 1500,300 1500,200 	"/>
	<polygon class="st0" points="1400,200 1400,300 1500,300 1500,200 	"/>
</g>
<g>
	<polyline class="st1" points="1500,200 1500,300 1600,300 1600,200 	"/>
	<polygon class="st1" points="1500,200 1500,300 1600,300 1600,200 	"/>
	<text transform="matrix(1 0 0 1 1530 270)" class="st2 st3">r</text>
</g>
<g>
	<polyline class="st0" points="1600,200 1600,300 1700,300 1700,200 	"/>
	<polygon class="st0" points="1600,200 1600,300 1700,300 1700,200 	"/>
</g>
<g>
	<polyline class="st0" points="1700,200 1700,300 1800,300 1800,200 	"/>
	<polygon class="st0" points="1700,200 1700,300 1800,300 1800,200 	"/>
</g>
<g>
	<polyline class="st0" points="1800,200 1800,300 1900,300 1900,200 	"/>
	<polygon class="st0" points="1800,200 1800,300 1900,300 1900,200 	"/>
</g>
<g>
	<polyline class="st0" points="1900,200 1900,300 2000,300 2000,200 	"/>
	<polygon class="st0" points="1900,200 1900,300 2000,300 2000,200 	"/>
</g>
<g>
	<polyline class="st0" points="0,300 0,400 100,400 100,300 	"/>
	<polygon class="st0" points="0,300 0,400 100,400 100,300 	"/>
</g>
<g>
	<polyline class="st0" points="100,300 100,400 200,400 200,300 	"/>
	<polygon class="st0" points="100,300 100,400 200,400 200,300 	"/>
</g>
<g>
	<polyline class="st0" points="200,300 200,400 300,400 300,300 	"/>
	<polygon class="st0" points="200,300 200,400 300,400 300,300 	"/>
</g>
<g>
	<polyline class="st1" points="300,300 300,400 400,400 400,300 	"/>
	<polygon class="st1" points="300,300 300,400 400,400 400,300 	"/>
	<text transform="matrix(1 0 0 1 330 370)" class="st2 st3">a</text>
	<text transform="matrix(1 0 0 1 311 333)" class="st4 st5">5</text>
</g>
<g>
	<polyline class="st1" points="400,300 400,400 500,400 500,300 	"/>
	<polygon class="st1" points="400,300 400,400 500,400 500,300 	"/>
	<text transform="matrix(1 0 0 1 430 370)" class="st2 st3">g</text>
</g>
<g>
	<polyline class="st1" points="500,300 500,400 600,400 600,300 	"/>
	<polygon class="st1" points="500,300 500,400 600,400 600,300 	"/>
	<text transform="matrix(1 0 0 1 530 370)" class="st2 st3">a</text>
</g>
<g>
	<polyline class="st1" points="600,300 600,400 700,400 700,300 	"/>
	<polygon class="st1" points="600,300 600,400 700,400 700,300 	"/>
	<text transform="matrix(1 0 0 1 630 370)" class="st2 st3">i</text>
</g>
<g>
	<polyline class="st1" points="700,300 700,400 800,400 800,300 	"/>
	<polygon class="st1" points="700,300 700,400 800,400 800,300 	"/>
	<text transform="matrix(1 0 0 1 730 370)" class="st2 st3">n</text>
</g>
<g>
	<polyline class="st1" points="800,300 800,400 900,400 900,300 	"/>
	<polygon class="st1" points="800,300 800,400 900,400 900,300 	"/>
	<text transform="matrix(1 0 0 1 830 370)" class="st2 st3">s</text>
</g>
<g>
	<polyline class="st1" points="900,300 900,400 1000,400 1000,300 	"/>
	<polygon class="st1" points="900,300 900,400 1000,400 1000,300 	"/>
	<text transform="matrix(1 0 0 1 930 370)" class="st2 st3">t</text>
</g>
<g>
	<polyline class="st0" points="1000,300 1000,400 1100,400 1100,300 	"/>
	<polygon class="st0" points="1000,300 1000,400 1100,400 1100,300 	"/>
</g>
<g>
	<polyline class="st0" points="1100,300 1100,400 1200,400 1200,300 	"/>
	<polygon class="st0" points="1100,300 1100,400 1200,400 1200,300 	"/>
</g>
<g>
	<polyline class="st0" points="1200,300 1200,400 1300,400 1300,300 	"/>
	<polygon class="st0" points="1200,300 1200,400 1300,400 1300,300 	"/>
</g>
<g>
	<polyline class="st1" points="1300,300 1300,400 1400,400 1400,300 	"/>
	<polygon class="st1" points="1300,300 1300,400 1400,400 1400,300 	"/>
	<text transform="matrix(1 0 0 1 1330 370)" class="st2 st3">e</text>
	<text transform="matrix(1 0 0 1 1311 333)" class="st4 st5">6</text>
</g>
<g>
	<polyline class="st1" points="1400,300 1400,400 1500,400 1500,300 	"/>
	<polygon class="st1" points="1400,300 1400,400 1500,400 1500,300 	"/>
	<text transform="matrix(1 0 0 1 1430 370)" class="st2 st3">v</text>
</g>
<g>
	<polyline class="st1" points="1500,300 1500,400 1600,400 1600,300 	"/>
	<polygon class="st1" points="1500,300 1500,400 1600,400 1600,300 	"/>
	<text transform="matrix(1 0 0 1 1530 370)" class="st2 st3">i</text>
</g>
<g>
	<polyline class="st1" points="1600,300 1600,400 1700,400 1700,300 	"/>
	<polygon class="st1" points="1600,300 1600,400 1700,400 1700,300 	"/>
	<text transform="matrix(1 0 0 1 1630 370)" class="st2 st3">l</text>
</g>
<g>
	<polyline class="st0" points="1700,300 1700,400 1800,400 1800,300 	"/>
	<polygon class="st0" points="1700,300 1700,400 1800,400 1800,300 	"/>
</g>
<g>
	<polyline class="st1" points="1800,300 1800,400 1900,400 1900,300 	"/>
	<polygon class="st1" points="1800,300 1800,400 1900,400 1900,300 	"/>
	<text transform="matrix(1 0 0 1 1830 370)" class="st2 st3">w</text>
	<text transform="matrix(1 0 0 1 1811 333)" class="st4 st5">7</text>
</g>
<g>
	<polyline class="st0" points="1900,300 1900,400 2000,400 2000,300 	"/>
	<polygon class="st0" points="1900,300 1900,400 2000,400 2000,300 	"/>
</g>
<g>
	<polyline class="st0" points="0,400 0,500 100,500 100,400 	"/>
	<polygon class="st0" points="0,400 0,500 100,500 100,400 	"/>
</g>
<g>
	<polyline class="st0" points="100,400 100,500 200,500 200,400 	"/>
	<polygon class="st0" points="100,400 100,500 200,500 200,400 	"/>
</g>
<g>
	<polyline class="st0" points="200,400 200,500 300,500 300,400 	"/>
	<polygon class="st0" points="200,400 200,500 300,500 300,400 	"/>
</g>
<g>
	<polyline class="st0" points="300,400 300,500 400,500 400,400 	"/>
	<polygon class="st0" points="300,400 300,500 400,500 400,400 	"/>
</g>
<g>
	<polyline class="st0" points="400,400 400,500 500,500 500,400 	"/>
	<polygon class="st0" points="400,400 400,500 500,500 500,400 	"/>
</g>
<g>
	<polyline class="st1" points="500,400 500,500 600,500 600,400 	"/>
	<polygon class="st1" points="500,400 500,500 600,500 600,400 	"/>
	<text transform="matrix(1 0 0 1 530 470)" class="st2 st3">c</text>
</g>
<g>
	<polyline class="st0" points="600,400 600,500 700,500 700,400 	"/>
	<polygon class="st0" points="600,400 600,500 700,500 700,400 	"/>
</g>
<g>
	<polyline class="st0" points="700,400 700,500 800,500 800,400 	"/>
	<polygon class="st0" points="700,400 700,500 800,500 800,400 	"/>
</g>
<g>
	<polyline class="st0" points="800,400 800,500 900,500 900,400 	"/>
	<polygon class="st0" points="800,400 800,500 900,500 900,400 	"/>
</g>
<g>
	<polyline class="st0" points="900,400 900,500 1000,500 1000,400 	"/>
	<polygon class="st0" points="900,400 900,500 1000,500 1000,400 	"/>
</g>
<g>
	<polyline class="st0" points="1000,400 1000,500 1100,500 1100,400 	"/>
	<polygon class="st0" points="1000,400 1000,500 1100,500 1100,400 	"/>
</g>
<g>
	<polyline class="st0" points="1100,400 1100,500 1200,500 1200,400 	"/>
	<polygon class="st0" points="1100,400 1100,500 1200,500 1200,400 	"/>
</g>
<g>
	<polyline class="st0" points="1200,400 1200,500 1300,500 1300,400 	"/>
	<polygon class="st0" points="1200,400 1200,500 1300,500 1300,400 	"/>
</g>
<g>
	<polyline class="st0" points="1300,400 1300,500 1400,500 1400,400 	"/>
	<polygon class="st0" points="1300,400 1300,500 1400,500 1400,400 	"/>
</g>
<g>
	<polyline class="st0" points="1400,400 1400,500 1500,500 1500,400 	"/>
	<polygon class="st0" points="1400,400 1400,500 1500,500 1500,400 	"/>
</g>
<g>
	<polyline class="st1" points="1500,400 1500,500 1600,500 1600,400 	"/>
	<polygon class="st1" points="1500,400 1500,500 1600,500 1600,400 	"/>
	<text transform="matrix(1 0 0 1 1530 470)" class="st2 st3">o</text>
</g>
<g>
	<polyline class="st0" points="1600,400 1600,500 1700,500 1700,400 	"/>
	<polygon class="st0" points="1600,400 1600,500 1700,500 1700,400 	"/>
</g>
<g>
	<polyline class="st0" points="1700,400 1700,500 1800,500 1800,400 	"/>
	<polygon class="st0" points="1700,400 1700,500 1800,500 1800,400 	"/>
</g>
<g>
	<polyline class="st1" points="1800,400 1800,500 1900,500 1900,400 	"/>
	<polygon class="st1" points="1800,400 1800,500 1900,500 1900,400 	"/>
	<text transform="matrix(1 0 0 1 1830 470)" class="st2 st3">o</text>
</g>
<g>
	<polyline class="st0" points="1900,400 1900,500 2000,500 2000,400 	"/>
	<polygon class="st0" points="1900,400 1900,500 2000,500 2000,400 	"/>
</g>
<g>
	<polyline class="st0" points="0,500 0,600 100,600 100,500 	"/>
	<polygon class="st0" points="0,500 0,600 100,600 100,500 	"/>
</g>
<g>
	<polyline class="st0" points="100,500 100,600 200,600 200,500 	"/>
	<polygon class="st0" points="100,500 100,600 200,600 200,500 	"/>
</g>
<g>
	<polyline class="st0" points="200,500 200,600 300,600 300,500 	"/>
	<polygon class="st0" points="200,500 200,600 300,600 300,500 	"/>
</g>
<g>
	<polyline class="st0" points="300,500 300,600 400,600 400,500 	"/>
	<polygon class="st0" points="300,500 300,600 400,600 400,500 	"/>
</g>
<g>
	<polyline class="st0" points="400,500 400,600 500,600 500,500 	"/>
	<polygon class="st0" points="400,500 400,600 500,600 500,500 	"/>
</g>
<g>
	<polyline class="st1" points="500,500 500,600 600,600 600,500 	"/>
	<polygon class="st1" points="500,500 500,600 600,600 600,500 	"/>
	<text transform="matrix(1 0 0 1 530 570)" class="st2 st3">t</text>
</g>
<g>
	<polyline class="st0" points="600,500 600,600 700,600 700,500 	"/>
	<polygon class="st0" points="600,500 600,600 700,600 700,500 	"/>
</g>
<g>
	<polyline class="st0" points="700,500 700,600 800,600 800,500 	"/>
	<polygon class="st0" points="700,500 700,600 800,600 800,500 	"/>
</g>
<g>
	<polyline class="st0" points="800,500 800,600 900,600 900,500 	"/>
	<polygon class="st0" points="800,500 800,600 900,600 900,500 	"/>
</g>
<g>
	<polyline class="st0" points="900,500 900,600 1000,600 1000,500 	"/>
	<polygon class="st0" points="900,500 900,600 1000,600 1000,500 	"/>
</g>
<g>
	<polyline class="st0" points="1000,500 1000,600 1100,600 1100,500 	"/>
	<polygon class="st0" points="1000,500 1000,600 1100,600 1100,500 	"/>
</g>
<g>
	<polyline class="st0" points="1100,500 1100,600 1200,600 1200,500 	"/>
	<polygon class="st0" points="1100,500 1100,600 1200,600 1200,500 	"/>
</g>
<g>
	<polyline class="st0" points="1200,500 1200,600 1300,600 1300,500 	"/>
	<polygon class="st0" points="1200,500 1200,600 1300,600 1300,500 	"/>
</g>
<g>
	<polyline class="st1" points="1300,500 1300,600 1400,600 1400,500 	"/>
	<polygon class="st1" points="1300,500 1300,600 1400,600 1400,500 	"/>
	<text transform="matrix(1 0 0 1 1330 570)" class="st2 st3">h</text>
	<text transform="matrix(1 0 0 1 1311 533)" class="st4 st5">8</text>
</g>
<g>
	<polyline class="st1" points="1400,500 1400,600 1500,600 1500,500 	"/>
	<polygon class="st1" points="1400,500 1400,600 1500,600 1500,500 	"/>
	<text transform="matrix(1 0 0 1 1430 570)" class="st2 st3">i</text>
</g>
<g>
	<polyline class="st1" points="1500,500 1500,600 1600,600 1600,500 	"/>
	<polygon class="st1" points="1500,500 1500,600 1600,600 1600,500 	"/>
	<text transform="matrix(1 0 0 1 1530 570)" class="st2 st3">d</text>
</g>
<g>
	<polyline class="st1" points="1600,500 1600,600 1700,600 1700,500 	"/>
	<polygon class="st1" points="1600,500 1600,600 1700,600 1700,500 	"/>
	<text transform="matrix(1 0 0 1 1630 570)" class="st2 st3">d</text>
</g>
<g>
	<polyline class="st1" points="1700,500 1700,600 1800,600 1800,500 	"/>
	<polygon class="st1" points="1700,500 1700,600 1800,600 1800,500 	"/>
	<text transform="matrix(1 0 0 1 1730 570)" class="st2 st3">e</text>
</g>
<g>
	<polyline class="st1" points="1800,500 1800,600 1900,600 1900,500 	"/>
	<polygon class="st1" points="1800,500 1800,600 1900,600 1900,500 	"/>
	<text transform="matrix(1 0 0 1 1830 570)" class="st2 st3">n</text>
</g>
<g>
	<polyline class="st0" points="1900,500 1900,600 2000,600 2000,500 	"/>
	<polygon class="st0" points="1900,500 1900,600 2000,600 2000,500 	"/>
</g>
<g>
	<polyline class="st0" points="0,600 0,700 100,700 100,600 	"/>
	<polygon class="st0" points="0,600 0,700 100,700 100,600 	"/>
</g>
<g>
	<polyline class="st0" points="100,600 100,700 200,700 200,600 	"/>
	<polygon class="st0" points="100,600 100,700 200,700 200,600 	"/>
</g>
<g>
	<polyline class="st0" points="200,600 200,700 300,700 300,600 	"/>
	<polygon class="st0" points="200,600 200,700 300,700 300,600 	"/>
</g>
<g>
	<polyline class="st0" points="300,600 300,700 400,700 400,600 	"/>
	<polygon class="st0" points="300,600 300,700 400,700 400,600 	"/>
</g>
<g>
	<polyline class="st0" points="400,600 400,700 500,700 500,600 	"/>
	<polygon class="st0" points="400,600 400,700 500,700 500,600 	"/>
</g>
<g>
	<polyline class="st1" points="500,600 500,700 600,700 600,600 	"/>
	<polygon class="st1" points="500,600 500,700 600,700 600,600 	"/>
	<text transform="matrix(1 0 0 1 530 670)" class="st2 st3">i</text>
</g>
<g>
	<polyline class="st0" points="600,600 600,700 700,700 700,600 	"/>
	<polygon class="st0" points="600,600 600,700 700,700 700,600 	"/>
</g>
<g>
	<polyline class="st0" points="700,600 700,700 800,700 800,600 	"/>
	<polygon class="st0" points="700,600 700,700 800,700 800,600 	"/>
</g>
<g>
	<polyline class="st0" points="800,600 800,700 900,700 900,600 	"/>
	<polygon class="st0" points="800,600 800,700 900,700 900,600 	"/>
</g>
<g>
	<polyline class="st0" points="900,600 900,700 1000,700 1000,600 	"/>
	<polygon class="st0" points="900,600 900,700 1000,700 1000,600 	"/>
</g>
<g>
	<polyline class="st0" points="1000,600 1000,700 1100,700 1100,600 	"/>
	<polygon class="st0" points="1000,600 1000,700 1100,700 1100,600 	"/>
</g>
<g>
	<polyline class="st0" points="1100,600 1100,700 1200,700 1200,600 	"/>
	<polygon class="st0" points="1100,600 1100,700 1200,700 1200,600 	"/>
</g>
<g>
	<polyline class="st0" points="1200,600 1200,700 1300,700 1300,600 	"/>
	<polygon class="st0" points="1200,600 1200,700 1300,700 1300,600 	"/>
</g>
<g>
	<polyline class="st1" points="1300,600 1300,700 1400,700 1400,600 	"/>
	<polygon class="st1" points="1300,600 1300,700 1400,700 1400,600 	"/>
	<text transform="matrix(1 0 0 1 1330 670)" class="st2 st3">a</text>
</g>
<g>
	<polyline class="st0" points="1400,600 1400,700 1500,700 1500,600 	"/>
	<polygon class="st0" points="1400,600 1400,700 1500,700 1500,600 	"/>
</g>
<g>
	<polyline class="st0" points="1500,600 1500,700 1600,700 1600,600 	"/>
	<polygon class="st0" points="1500,600 1500,700 1600,700 1600,600 	"/>
</g>
<g>
	<polyline class="st0" points="1600,600 1600,700 1700,700 1700,600 	"/>
	<polygon class="st0" points="1600,600 1600,700 1700,700 1700,600 	"/>
</g>
<g>
	<polyline class="st0" points="1700,600 1700,700 1800,700 1800,600 	"/>
	<polygon class="st0" points="1700,600 1700,700 1800,700 1800,600 	"/>
</g>
<g>
	<polyline class="st0" points="1800,600 1800,700 1900,700 1900,600 	"/>
	<polygon class="st0" points="1800,600 1800,700 1900,700 1900,600 	"/>
</g>
<g>
	<polyline class="st0" points="1900,600 1900,700 2000,700 2000,600 	"/>
	<polygon class="st0" points="1900,600 1900,700 2000,700 2000,600 	"/>
</g>
<g>
	<polyline class="st0" points="0,700 0,800 100,800 100,700 	"/>
	<polygon class="st0" points="0,700 0,800 100,800 100,700 	"/>
</g>
<g>
	<polyline class="st0" points="100,700 100,800 200,800 200,700 	"/>
	<polygon class="st0" points="100,700 100,800 200,800 200,700 	"/>
</g>
<g>
	<polyline class="st1" points="200,700 200,800 300,800 300,700 	"/>
	<polygon class="st1" points="200,700 200,800 300,800 300,700 	"/>
	<text transform="matrix(1 0 0 1 230 770)" class="st2 st3">s</text>
	<text transform="matrix(1 0 0 1 211 733)" class="st4 st5">9</text>
</g>
<g>
	<polyline class="st1" points="300,700 300,800 400,800 400,700 	"/>
	<polygon class="st1" points="300,700 300,800 400,800 400,700 	"/>
	<text transform="matrix(1 0 0 1 330 770)" class="st2 st3">p</text>
</g>
<g>
	<polyline class="st1" points="400,700 400,800 500,800 500,700 	"/>
	<polygon class="st1" points="400,700 400,800 500,800 500,700 	"/>
	<text transform="matrix(1 0 0 1 430 770)" class="st2 st3">a</text>
	<text transform="matrix(1 0 0 1 411 733)" class="st4 st5">10</text>
</g>
<g>
	<polyline class="st1" points="500,700 500,800 600,800 600,700 	"/>
	<polygon class="st1" points="500,700 500,800 600,800 600,700 	"/>
	<text transform="matrix(1 0 0 1 530 770)" class="st2 st3">c</text>
</g>
<g>
	<polyline class="st1" points="600,700 600,800 700,800 700,700 	"/>
	<polygon class="st1" points="600,700 600,800 700,800 700,700 	"/>
	<text transform="matrix(1 0 0 1 630 770)" class="st2 st3">e</text>
</g>
<g>
	<polyline class="st1" points="700,700 700,800 800,800 800,700 	"/>
	<polygon class="st1" points="700,700 700,800 800,800 800,700 	"/>
	<text transform="matrix(1 0 0 1 730 770)" class="st2 st3">s</text>
</g>
<g>
	<polyline class="st1" points="800,700 800,800 900,800 900,700 	"/>
	<polygon class="st1" points="800,700 800,800 900,800 900,700 	"/>
	<text transform="matrix(1 0 0 1 830 770)" class="st2 st3">h</text>
</g>
<g>
	<polyline class="st1" points="900,700 900,800 1000,800 1000,700 	"/>
	<polygon class="st1" points="900,700 900,800 1000,800 1000,700 	"/>
	<text transform="matrix(1 0 0 1 930 770)" class="st2 st3">i</text>
</g>
<g>
	<polyline class="st1" points="1000,700 1000,800 1100,800 1100,700 	"/>
	<polygon class="st1" points="1000,700 1000,800 1100,800 1100,700 	"/>
	<text transform="matrix(1 0 0 1 1030 770)" class="st2 st3">p</text>
</g>
<g>
	<polyline class="st1" points="1100,700 1100,800 1200,800 1200,700 	"/>
	<polygon class="st1" points="1100,700 1100,800 1200,800 1200,700 	"/>
	<text transform="matrix(1 0 0 1 1130 770)" class="st2 st3">s</text>
	<text transform="matrix(1 0 0 1 1111 733)" class="st4 st5">11</text>
</g>
<g>
	<polyline class="st0" points="1200,700 1200,800 1300,800 1300,700 	"/>
	<polygon class="st0" points="1200,700 1200,800 1300,800 1300,700 	"/>
</g>
<g>
	<polyline class="st1" points="1300,700 1300,800 1400,800 1400,700 	"/>
	<polygon class="st1" points="1300,700 1300,800 1400,800 1400,700 	"/>
	<text transform="matrix(1 0 0 1 1330 770)" class="st2 st3">v</text>
</g>
<g>
	<polyline class="st0" points="1400,700 1400,800 1500,800 1500,700 	"/>
	<polygon class="st0" points="1400,700 1400,800 1500,800 1500,700 	"/>
</g>
<g>
	<polyline class="st0" points="1500,700 1500,800 1600,800 1600,700 	"/>
	<polygon class="st0" points="1500,700 1500,800 1600,800 1600,700 	"/>
</g>
<g>
	<polyline class="st0" points="1600,700 1600,800 1700,800 1700,700 	"/>
	<polygon class="st0" points="1600,700 1600,800 1700,800 1700,700 	"/>
</g>
<g>
	<polyline class="st0" points="1700,700 1700,800 1800,800 1800,700 	"/>
	<polygon class="st0" points="1700,700 1700,800 1800,800 1800,700 	"/>
</g>
<g>
	<polyline class="st0" points="1800,700 1800,800 1900,800 1900,700 	"/>
	<polygon class="st0" points="1800,700 1800,800 1900,800 1900,700 	"/>
</g>
<g>
	<polyline class="st0" points="1900,700 1900,800 2000,800 2000,700 	"/>
	<polygon class="st0" points="1900,700 1900,800 2000,800 2000,700 	"/>
</g>
<g>
	<polyline class="st0" points="0,800 0,900 100,900 100,800 	"/>
	<polygon class="st0" points="0,800 0,900 100,900 100,800 	"/>
</g>
<g>
	<polyline class="st1" points="100,800 100,900 200,900 200,800 	"/>
	<polygon class="st1" points="100,800 100,900 200,900 200,800 	"/>
	<text transform="matrix(1 0 0 1 130 870)" class="st2 st3">f</text>
	<text transform="matrix(1 0 0 1 111 833)" class="st4 st5">12</text>
</g>
<g>
	<polyline class="st0" points="200,800 200,900 300,900 300,800 	"/>
	<polygon class="st0" points="200,800 200,900 300,900 300,800 	"/>
</g>
<g>
	<polyline class="st0" points="300,800 300,900 400,900 400,800 	"/>
	<polygon class="st0" points="300,800 300,900 400,900 400,800 	"/>
</g>
<g>
	<polyline class="st1" points="400,800 400,900 500,900 500,800 	"/>
	<polygon class="st1" points="400,800 400,900 500,900 500,800 	"/>
	<text transform="matrix(1 0 0 1 430 870)" class="st2 st3">g</text>
</g>
<g>
	<polyline class="st0" points="500,800 500,900 600,900 600,800 	"/>
	<polygon class="st0" points="500,800 500,900 600,900 600,800 	"/>
</g>
<g>
	<polyline class="st0" points="600,800 600,900 700,900 700,800 	"/>
	<polygon class="st0" points="600,800 600,900 700,900 700,800 	"/>
</g>
<g>
	<polyline class="st0" points="700,800 700,900 800,900 800,800 	"/>
	<polygon class="st0" points="700,800 700,900 800,900 800,800 	"/>
</g>
<g>
	<polyline class="st0" points="800,800 800,900 900,900 900,800 	"/>
	<polygon class="st0" points="800,800 800,900 900,900 900,800 	"/>
</g>
<g>
	<polyline class="st0" points="900,800 900,900 1000,900 1000,800 	"/>
	<polygon class="st0" points="900,800 900,900 1000,900 1000,800 	"/>
</g>
<g>
	<polyline class="st0" points="1000,800 1000,900 1100,900 1100,800 	"/>
	<polygon class="st0" points="1000,800 1000,900 1100,900 1100,800 	"/>
</g>
<g>
	<polyline class="st1" points="1100,800 1100,900 1200,900 1200,800 	"/>
	<polygon class="st1" points="1100,800 1100,900 1200,900 1200,800 	"/>
	<text transform="matrix(1 0 0 1 1130 870)" class="st2 st3">t</text>
	<text transform="matrix(1 0 0 1 1111 833)" class="st4 st5">13</text>
</g>
<g>
	<polyline class="st1" points="1200,800 1200,900 1300,900 1300,800 	"/>
	<polygon class="st1" points="1200,800 1200,900 1300,900 1300,800 	"/>
	<text transform="matrix(1 0 0 1 1230 870)" class="st2 st3">h</text>
</g>
<g>
	<polyline class="st1" points="1300,800 1300,900 1400,900 1400,800 	"/>
	<polygon class="st1" points="1300,800 1300,900 1400,900 1400,800 	"/>
	<text transform="matrix(1 0 0 1 1330 870)" class="st2 st3">e</text>
</g>
<g>
	<polyline class="st1" points="1400,800 1400,900 1500,900 1500,800 	"/>
	<polygon class="st1" points="1400,800 1400,900 1500,900 1500,800 	"/>
	<text transform="matrix(1 0 0 1 1430 870)" class="st2 st3">i</text>
</g>
<g>
	<polyline class="st1" points="1500,800 1500,900 1600,900 1600,800 	"/>
	<polygon class="st1" points="1500,800 1500,900 1600,900 1600,800 	"/>
	<text transform="matrix(1 0 0 1 1530 870)" class="st2 st3">r</text>
	<text transform="matrix(1 0 0 1 1511 833)" class="st4 st5">14</text>
</g>
<g>
	<polyline class="st0" points="1600,800 1600,900 1700,900 1700,800 	"/>
	<polygon class="st0" points="1600,800 1600,900 1700,900 1700,800 	"/>
</g>
<g>
	<polyline class="st0" points="1700,800 1700,900 1800,900 1800,800 	"/>
	<polygon class="st0" points="1700,800 1700,900 1800,900 1800,800 	"/>
</g>
<g>
	<polyline class="st0" points="1800,800 1800,900 1900,900 1900,800 	"/>
	<polygon class="st0" points="1800,800 1800,900 1900,900 1900,800 	"/>
</g>
<g>
	<polyline class="st0" points="1900,800 1900,900 2000,900 2000,800 	"/>
	<polygon class="st0" points="1900,800 1900,900 2000,900 2000,800 	"/>
</g>
<g>
	<polyline class="st1" points="0,900 0,1000 100,1000 100,900 	"/>
	<polygon class="st1" points="0,900 0,1000 100,1000 100,900 	"/>
	<text transform="matrix(1 0 0 1 30 970)" class="st2 st3">v</text>
	<text transform="matrix(1 0 0 1 11 933)" class="st4 st5">15</text>
</g>
<g>
	<polyline class="st1" points="100,900 100,1000 200,1000 200,900 	"/>
	<polygon class="st1" points="100,900 100,1000 200,1000 200,900 	"/>
	<text transform="matrix(1 0 0 1 130 970)" class="st2 st3">i</text>
</g>
<g>
	<polyline class="st1" points="200,900 200,1000 300,1000 300,900 	"/>
	<polygon class="st1" points="200,900 200,1000 300,1000 300,900 	"/>
	<text transform="matrix(1 0 0 1 230 970)" class="st2 st3">c</text>
</g>
<g>
	<polyline class="st1" points="300,900 300,1000 400,1000 400,900 	"/>
	<polygon class="st1" points="300,900 300,1000 400,1000 400,900 	"/>
	<text transform="matrix(1 0 0 1 330 970)" class="st2 st3">t</text>
</g>
<g>
	<polyline class="st1" points="400,900 400,1000 500,1000 500,900 	"/>
	<polygon class="st1" points="400,900 400,1000 500,1000 500,900 	"/>
	<text transform="matrix(1 0 0 1 430 970)" class="st2 st3">o</text>
</g>
<g>
	<polyline class="st1" points="500,900 500,1000 600,1000 600,900 	"/>
	<polygon class="st1" points="500,900 500,1000 600,1000 600,900 	"/>
	<text transform="matrix(1 0 0 1 530 970)" class="st2 st3">r</text>
</g>
<g>
	<polyline class="st1" points="600,900 600,1000 700,1000 700,900 	"/>
	<polygon class="st1" points="600,900 600,1000 700,1000 700,900 	"/>
	<text transform="matrix(1 0 0 1 630 970)" class="st2 st3">y</text>
</g>
<g>
	<polyline class="st0" points="700,900 700,1000 800,1000 800,900 	"/>
	<polygon class="st0" points="700,900 700,1000 800,1000 800,900 	"/>
</g>
<g>
	<polyline class="st0" points="800,900 800,1000 900,1000 900,900 	"/>
	<polygon class="st0" points="800,900 800,1000 900,1000 900,900 	"/>
</g>
<g>
	<polyline class="st1" points="900,900 900,1000 1000,1000 1000,900 	"/>
	<polygon class="st1" points="900,900 900,1000 1000,1000 1000,900 	"/>
	<text transform="matrix(1 0 0 1 930 970)" class="st2 st3">f</text>
	<text transform="matrix(1 0 0 1 911 933)" class="st4 st5">16</text>
</g>
<g>
	<polyline class="st1" points="1000,900 1000,1000 1100,1000 1100,900 	"/>
	<polygon class="st1" points="1000,900 1000,1000 1100,1000 1100,900 	"/>
	<text transform="matrix(1 0 0 1 1030 970)" class="st2 st3">a</text>
</g>
<g>
	<polyline class="st1" points="1100,900 1100,1000 1200,1000 1200,900 	"/>
	<polygon class="st1" points="1100,900 1100,1000 1200,1000 1200,900 	"/>
	<text transform="matrix(1 0 0 1 1130 970)" class="st2 st3">r</text>
</g>
<g>
	<polyline class="st0" points="1200,900 1200,1000 1300,1000 1300,900 	"/>
	<polygon class="st0" points="1200,900 1200,1000 1300,1000 1300,900 	"/>
</g>
<g>
	<polyline class="st0" points="1300,900 1300,1000 1400,1000 1400,900 	"/>
	<polygon class="st0" points="1300,900 1300,1000 1400,1000 1400,900 	"/>
</g>
<g>
	<polyline class="st0" points="1400,900 1400,1000 1500,1000 1500,900 	"/>
	<polygon class="st0" points="1400,900 1400,1000 1500,1000 1500,900 	"/>
</g>
<g>
	<polyline class="st1" points="1500,900 1500,1000 1600,1000 1600,900 	"/>
	<polygon class="st1" points="1500,900 1500,1000 1600,1000 1600,900 	"/>
	<text transform="matrix(1 0 0 1 1530 970)" class="st2 st3">e</text>
</g>
<g>
	<polyline class="st0" points="1600,900 1600,1000 1700,1000 1700,900 	"/>
	<polygon class="st0" points="1600,900 1600,1000 1700,1000 1700,900 	"/>
</g>
<g>
	<polyline class="st0" points="1700,900 1700,1000 1800,1000 1800,900 	"/>
	<polygon class="st0" points="1700,900 1700,1000 1800,1000 1800,900 	"/>
</g>
<g>
	<polyline class="st0" points="1800,900 1800,1000 1900,1000 1900,900 	"/>
	<polygon class="st0" points="1800,900 1800,1000 1900,1000 1900,900 	"/>
</g>
<g>
	<polyline class="st0" points="1900,900 1900,1000 2000,1000 2000,900 	"/>
	<polygon class="st0" points="1900,900 1900,1000 2000,1000 2000,900 	"/>
</g>
<g>
	<polyline class="st0" points="0,1000 0,1100 100,1100 100,1000 	"/>
	<polygon class="st0" points="0,1000 0,1100 100,1100 100,1000 	"/>
</g>
<g>
	<polyline class="st1" points="100,1000 100,1100 200,1100 200,1000 	"/>
	<polygon class="st1" points="100,1000 100,1100 200,1100 200,1000 	"/>
	<text transform="matrix(1 0 0 1 130 1070)" class="st2 st3">r</text>
</g>
<g>
	<polyline class="st0" points="200,1000 200,1100 300,1100 300,1000 	"/>
	<polygon class="st0" points="200,1000 200,1100 300,1100 300,1000 	"/>
</g>
<g>
	<polyline class="st0" points="300,1000 300,1100 400,1100 400,1000 	"/>
	<polygon class="st0" points="300,1000 300,1100 400,1100 400,1000 	"/>
</g>
<g>
	<polyline class="st0" points="400,1000 400,1100 500,1100 500,1000 	"/>
	<polygon class="st0" points="400,1000 400,1100 500,1100 500,1000 	"/>
</g>
<g>
	<polyline class="st0" points="500,1000 500,1100 600,1100 600,1000 	"/>
	<polygon class="st0" points="500,1000 500,1100 600,1100 600,1000 	"/>
</g>
<g>
	<polyline class="st0" points="600,1000 600,1100 700,1100 700,1000 	"/>
	<polygon class="st0" points="600,1000 600,1100 700,1100 700,1000 	"/>
</g>
<g>
	<polyline class="st0" points="700,1000 700,1100 800,1100 800,1000 	"/>
	<polygon class="st0" points="700,1000 700,1100 800,1100 800,1000 	"/>
</g>
<g>
	<polyline class="st0" points="800,1000 800,1100 900,1100 900,1000 	"/>
	<polygon class="st0" points="800,1000 800,1100 900,1100 900,1000 	"/>
</g>
<g>
	<polyline class="st1" points="900,1000 900,1100 1000,1100 1000,1000 	"/>
	<polygon class="st1" points="900,1000 900,1100 1000,1100 1000,1000 	"/>
	<text transform="matrix(1 0 0 1 930 1070)" class="st2 st3">r</text>
</g>
<g>
	<polyline class="st0" points="1000,1000 1000,1100 1100,1100 1100,1000 	"/>
	<polygon class="st0" points="1000,1000 1000,1100 1100,1100 1100,1000 	"/>
</g>
<g>
	<polyline class="st1" points="1100,1000 1100,1100 1200,1100 1200,1000 	"/>
	<polygon class="st1" points="1100,1000 1100,1100 1200,1100 1200,1000 	"/>
	<text transform="matrix(1 0 0 1 1130 1070)" class="st2 st3">i</text>
</g>
<g>
	<polyline class="st0" points="1200,1000 1200,1100 1300,1100 1300,1000 	"/>
	<polygon class="st0" points="1200,1000 1200,1100 1300,1100 1300,1000 	"/>
</g>
<g>
	<polyline class="st0" points="1300,1000 1300,1100 1400,1100 1400,1000 	"/>
	<polygon class="st0" points="1300,1000 1300,1100 1400,1100 1400,1000 	"/>
</g>
<g>
	<polyline class="st0" points="1400,1000 1400,1100 1500,1100 1500,1000 	"/>
	<polygon class="st0" points="1400,1000 1400,1100 1500,1100 1500,1000 	"/>
</g>
<g>
	<polyline class="st1" points="1500,1000 1500,1100 1600,1100 1600,1000 	"/>
	<polygon class="st1" points="1500,1000 1500,1100 1600,1100 1600,1000 	"/>
	<text transform="matrix(1 0 0 1 1530 1070)" class="st2 st3">b</text>
	<text transform="matrix(1 0 0 1 1511 1033)" class="st4 st5">17</text>
</g>
<g>
	<polyline class="st1" points="1600,1000 1600,1100 1700,1100 1700,1000 	"/>
	<polygon class="st1" points="1600,1000 1600,1100 1700,1100 1700,1000 	"/>
	<text transform="matrix(1 0 0 1 1630 1070)" class="st2 st3">a</text>
</g>
<g>
	<polyline class="st1" points="1700,1000 1700,1100 1800,1100 1800,1000 	"/>
	<polygon class="st1" points="1700,1000 1700,1100 1800,1100 1800,1000 	"/>
	<text transform="matrix(1 0 0 1 1730 1070)" class="st2 st3">s</text>
</g>
<g>
	<polyline class="st1" points="1800,1000 1800,1100 1900,1100 1900,1000 	"/>
	<polygon class="st1" points="1800,1000 1800,1100 1900,1100 1900,1000 	"/>
	<text transform="matrix(1 0 0 1 1830 1070)" class="st2 st3">e</text>
</g>
<g>
	<polyline class="st0" points="1900,1000 1900,1100 2000,1100 2000,1000 	"/>
	<polygon class="st0" points="1900,1000 1900,1100 2000,1100 2000,1000 	"/>
</g>
<g>
	<polyline class="st0" points="0,1100 0,1200 100,1200 100,1100 	"/>
	<polygon class="st0" points="0,1100 0,1200 100,1200 100,1100 	"/>
</g>
<g>
	<polyline class="st1" points="100,1100 100,1200 200,1200 200,1100 	"/>
	<polygon class="st1" points="100,1100 100,1200 200,1200 200,1100 	"/>
	<text transform="matrix(1 0 0 1 130 1170)" class="st2 st3">s</text>
</g>
<g>
	<polyline class="st0" points="200,1100 200,1200 300,1200 300,1100 	"/>
	<polygon class="st0" points="200,1100 200,1200 300,1200 300,1100 	"/>
</g>
<g>
	<polyline class="st0" points="300,1100 300,1200 400,1200 400,1100 	"/>
	<polygon class="st0" points="300,1100 300,1200 400,1200 400,1100 	"/>
</g>
<g>
	<polyline class="st0" points="400,1100 400,1200 500,1200 500,1100 	"/>
	<polygon class="st0" points="400,1100 400,1200 500,1200 500,1100 	"/>
</g>
<g>
	<polyline class="st0" points="500,1100 500,1200 600,1200 600,1100 	"/>
	<polygon class="st0" points="500,1100 500,1200 600,1200 600,1100 	"/>
</g>
<g>
	<polyline class="st0" points="600,1100 600,1200 700,1200 700,1100 	"/>
	<polygon class="st0" points="600,1100 600,1200 700,1200 700,1100 	"/>
</g>
<g>
	<polyline class="st0" points="700,1100 700,1200 800,1200 800,1100 	"/>
	<polygon class="st0" points="700,1100 700,1200 800,1200 800,1100 	"/>
</g>
<g>
	<polyline class="st0" points="800,1100 800,1200 900,1200 900,1100 	"/>
	<polygon class="st0" points="800,1100 800,1200 900,1200 900,1100 	"/>
</g>
<g>
	<polyline class="st1" points="900,1100 900,1200 1000,1200 1000,1100 	"/>
	<polygon class="st1" points="900,1100 900,1200 1000,1200 1000,1100 	"/>
	<text transform="matrix(1 0 0 1 930 1170)" class="st2 st3">o</text>
</g>
<g>
	<polyline class="st0" points="1000,1100 1000,1200 1100,1200 1100,1100 	"/>
	<polygon class="st0" points="1000,1100 1000,1200 1100,1200 1100,1100 	"/>
</g>
<g>
	<polyline class="st1" points="1100,1100 1100,1200 1200,1200 1200,1100 	"/>
	<polygon class="st1" points="1100,1100 1100,1200 1200,1200 1200,1100 	"/>
	<text transform="matrix(1 0 0 1 1130 1170)" class="st2 st3">k</text>
</g>
<g>
	<polyline class="st0" points="1200,1100 1200,1200 1300,1200 1300,1100 	"/>
	<polygon class="st0" points="1200,1100 1200,1200 1300,1200 1300,1100 	"/>
</g>
<g>
	<polyline class="st0" points="1300,1100 1300,1200 1400,1200 1400,1100 	"/>
	<polygon class="st0" points="1300,1100 1300,1200 1400,1200 1400,1100 	"/>
</g>
<g>
	<polyline class="st0" points="1400,1100 1400,1200 1500,1200 1500,1100 	"/>
	<polygon class="st0" points="1400,1100 1400,1200 1500,1200 1500,1100 	"/>
</g>
<g>
	<polyline class="st1" points="1500,1100 1500,1200 1600,1200 1600,1100 	"/>
	<polygon class="st1" points="1500,1100 1500,1200 1600,1200 1600,1100 	"/>
	<text transform="matrix(1 0 0 1 1530 1170)" class="st2 st3">e</text>
</g>
<g>
	<polyline class="st0" points="1600,1100 1600,1200 1700,1200 1700,1100 	"/>
	<polygon class="st0" points="1600,1100 1600,1200 1700,1200 1700,1100 	"/>
</g>
<g>
	<polyline class="st0" points="1700,1100 1700,1200 1800,1200 1800,1100 	"/>
	<polygon class="st0" points="1700,1100 1700,1200 1800,1200 1800,1100 	"/>
</g>
<g>
	<polyline class="st0" points="1800,1100 1800,1200 1900,1200 1900,1100 	"/>
	<polygon class="st0" points="1800,1100 1800,1200 1900,1200 1900,1100 	"/>
</g>
<g>
	<polyline class="st0" points="1900,1100 1900,1200 2000,1200 2000,1100 	"/>
	<polygon class="st0" points="1900,1100 1900,1200 2000,1200 2000,1100 	"/>
</g>
<g>
	<polyline class="st0" points="0,1200 0,1300 100,1300 100,1200 	"/>
	<polygon class="st0" points="0,1200 0,1300 100,1300 100,1200 	"/>
</g>
<g>
	<polyline class="st1" points="100,1200 100,1300 200,1300 200,1200 	"/>
	<polygon class="st1" points="100,1200 100,1300 200,1300 200,1200 	"/>
	<text transform="matrix(1 0 0 1 130 1270)" class="st2 st3">t</text>
</g>
<g>
	<polyline class="st0" points="200,1200 200,1300 300,1300 300,1200 	"/>
	<polygon class="st0" points="200,1200 200,1300 300,1300 300,1200 	"/>
</g>
<g>
	<polyline class="st0" points="300,1200 300,1300 400,1300 400,1200 	"/>
	<polygon class="st0" points="300,1200 300,1300 400,1300 400,1200 	"/>
</g>
<g>
	<polyline class="st0" points="400,1200 400,1300 500,1300 500,1200 	"/>
	<polygon class="st0" points="400,1200 400,1300 500,1300 500,1200 	"/>
</g>
<g>
	<polyline class="st0" points="500,1200 500,1300 600,1300 600,1200 	"/>
	<polygon class="st0" points="500,1200 500,1300 600,1300 600,1200 	"/>
</g>
<g>
	<polyline class="st0" points="600,1200 600,1300 700,1300 700,1200 	"/>
	<polygon class="st0" points="600,1200 600,1300 700,1300 700,1200 	"/>
</g>
<g>
	<polyline class="st0" points="700,1200 700,1300 800,1300 800,1200 	"/>
	<polygon class="st0" points="700,1200 700,1300 800,1300 800,1200 	"/>
</g>
<g>
	<polyline class="st0" points="800,1200 800,1300 900,1300 900,1200 	"/>
	<polygon class="st0" points="800,1200 800,1300 900,1300 900,1200 	"/>
</g>
<g>
	<polyline class="st1" points="900,1200 900,1300 1000,1300 1000,1200 	"/>
	<polygon class="st1" points="900,1200 900,1300 1000,1300 1000,1200 	"/>
	<text transform="matrix(1 0 0 1 930 1270)" class="st2 st3">m</text>
</g>
<g>
	<polyline class="st0" points="1000,1200 1000,1300 1100,1300 1100,1200 	"/>
	<polygon class="st0" points="1000,1200 1000,1300 1100,1300 1100,1200 	"/>
</g>
<g>
	<polyline class="st1" points="1100,1200 1100,1300 1200,1300 1200,1200 	"/>
	<polygon class="st1" points="1100,1200 1100,1300 1200,1300 1200,1200 	"/>
	<text transform="matrix(1 0 0 1 1130 1270)" class="st2 st3">i</text>
</g>
<g>
	<polyline class="st0" points="1200,1200 1200,1300 1300,1300 1300,1200 	"/>
	<polygon class="st0" points="1200,1200 1200,1300 1300,1300 1300,1200 	"/>
</g>
<g>
	<polyline class="st0" points="1300,1200 1300,1300 1400,1300 1400,1200 	"/>
	<polygon class="st0" points="1300,1200 1300,1300 1400,1300 1400,1200 	"/>
</g>
<g>
	<polyline class="st0" points="1400,1200 1400,1300 1500,1300 1500,1200 	"/>
	<polygon class="st0" points="1400,1200 1400,1300 1500,1300 1500,1200 	"/>
</g>
<g>
	<polyline class="st1" points="1500,1200 1500,1300 1600,1300 1600,1200 	"/>
	<polygon class="st1" points="1500,1200 1500,1300 1600,1300 1600,1200 	"/>
	<text transform="matrix(1 0 0 1 1530 1270)" class="st2 st3">l</text>
	<text transform="matrix(1 0 0 1 1511 1233)" class="st4 st5">18</text>
</g>
<g>
	<polyline class="st1" points="1600,1200 1600,1300 1700,1300 1700,1200 	"/>
	<polygon class="st1" points="1600,1200 1600,1300 1700,1300 1700,1200 	"/>
	<text transform="matrix(1 0 0 1 1630 1270)" class="st2 st3">o</text>
</g>
<g>
	<polyline class="st1" points="1700,1200 1700,1300 1800,1300 1800,1200 	"/>
	<polygon class="st1" points="1700,1200 1700,1300 1800,1300 1800,1200 	"/>
	<text transform="matrix(1 0 0 1 1730 1270)" class="st2 st3">n</text>
</g>
<g>
	<polyline class="st1" points="1800,1200 1800,1300 1900,1300 1900,1200 	"/>
	<polygon class="st1" points="1800,1200 1800,1300 1900,1300 1900,1200 	"/>
	<text transform="matrix(1 0 0 1 1830 1270)" class="st2 st3">g</text>
	<text transform="matrix(1 0 0 1 1811 1233)" class="st4 st5">19</text>
</g>
<g>
	<polyline class="st0" points="1900,1200 1900,1300 2000,1300 2000,1200 	"/>
	<polygon class="st0" points="1900,1200 1900,1300 2000,1300 2000,1200 	"/>
</g>
<g>
	<polyline class="st0" points="0,1300 0,1400 100,1400 100,1300 	"/>
	<polygon class="st0" points="0,1300 0,1400 100,1400 100,1300 	"/>
</g>
<g>
	<polyline class="st0" points="100,1300 100,1400 200,1400 200,1300 	"/>
	<polygon class="st0" points="100,1300 100,1400 200,1400 200,1300 	"/>
</g>
<g>
	<polyline class="st0" points="200,1300 200,1400 300,1400 300,1300 	"/>
	<polygon class="st0" points="200,1300 200,1400 300,1400 300,1300 	"/>
</g>
<g>
	<polyline class="st0" points="300,1300 300,1400 400,1400 400,1300 	"/>
	<polygon class="st0" points="300,1300 300,1400 400,1400 400,1300 	"/>
</g>
<g>
	<polyline class="st0" points="400,1300 400,1400 500,1400 500,1300 	"/>
	<polygon class="st0" points="400,1300 400,1400 500,1400 500,1300 	"/>
</g>
<g>
	<polyline class="st0" points="500,1300 500,1400 600,1400 600,1300 	"/>
	<polygon class="st0" points="500,1300 500,1400 600,1400 600,1300 	"/>
</g>
<g>
	<polyline class="st0" points="600,1300 600,1400 700,1400 700,1300 	"/>
	<polygon class="st0" points="600,1300 600,1400 700,1400 700,1300 	"/>
</g>
<g>
	<polyline class="st0" points="700,1300 700,1400 800,1400 800,1300 	"/>
	<polygon class="st0" points="700,1300 700,1400 800,1400 800,1300 	"/>
</g>
<g>
	<polyline class="st0" points="800,1300 800,1400 900,1400 900,1300 	"/>
	<polygon class="st0" points="800,1300 800,1400 900,1400 900,1300 	"/>
</g>
<g>
	<polyline class="st0" points="900,1300 900,1400 1000,1400 1000,1300 	"/>
	<polygon class="st0" points="900,1300 900,1400 1000,1400 1000,1300 	"/>
</g>
<g>
	<polyline class="st0" points="1000,1300 1000,1400 1100,1400 1100,1300 	"/>
	<polygon class="st0" points="1000,1300 1000,1400 1100,1400 1100,1300 	"/>
</g>
<g>
	<polyline class="st1" points="1100,1300 1100,1400 1200,1400 1200,1300 	"/>
	<polygon class="st1" points="1100,1300 1100,1400 1200,1400 1200,1300 	"/>
	<text transform="matrix(1 0 0 1 1130 1370)" class="st2 st3">n</text>
</g>
<g>
	<polyline class="st0" points="1200,1300 1200,1400 1300,1400 1300,1300 	"/>
	<polygon class="st0" points="1200,1300 1200,1400 1300,1400 1300,1300 	"/>
</g>
<g>
	<polyline class="st0" points="1300,1300 1300,1400 1400,1400 1400,1300 	"/>
	<polygon class="st0" points="1300,1300 1300,1400 1400,1400 1400,1300 	"/>
</g>
<g>
	<polyline class="st0" points="1400,1300 1400,1400 1500,1400 1500,1300 	"/>
	<polygon class="st0" points="1400,1300 1400,1400 1500,1400 1500,1300 	"/>
</g>
<g>
	<polyline class="st0" points="1500,1300 1500,1400 1600,1400 1600,1300 	"/>
	<polygon class="st0" points="1500,1300 1500,1400 1600,1400 1600,1300 	"/>
</g>
<g>
	<polyline class="st0" points="1600,1300 1600,1400 1700,1400 1700,1300 	"/>
	<polygon class="st0" points="1600,1300 1600,1400 1700,1400 1700,1300 	"/>
</g>
<g>
	<polyline class="st0" points="1700,1300 1700,1400 1800,1400 1800,1300 	"/>
	<polygon class="st0" points="1700,1300 1700,1400 1800,1400 1800,1300 	"/>
</g>
<g>
	<polyline class="st1" points="1800,1300 1800,1400 1900,1400 1900,1300 	"/>
	<polygon class="st1" points="1800,1300 1800,1400 1900,1400 1900,1300 	"/>
	<text transform="matrix(1 0 0 1 1830 1370)" class="st2 st3">a</text>
</g>
<g>
	<polyline class="st0" points="1900,1300 1900,1400 2000,1400 2000,1300 	"/>
	<polygon class="st0" points="1900,1300 1900,1400 2000,1400 2000,1300 	"/>
</g>
<g>
	<polyline class="st0" points="0,1400 0,1500 100,1500 100,1400 	"/>
	<polygon class="st0" points="0,1400 0,1500 100,1500 100,1400 	"/>
</g>
<g>
	<polyline class="st0" points="100,1400 100,1500 200,1500 200,1400 	"/>
	<polygon class="st0" points="100,1400 100,1500 200,1500 200,1400 	"/>
</g>
<g>
	<polyline class="st0" points="200,1400 200,1500 300,1500 300,1400 	"/>
	<polygon class="st0" points="200,1400 200,1500 300,1500 300,1400 	"/>
</g>
<g>
	<polyline class="st0" points="300,1400 300,1500 400,1500 400,1400 	"/>
	<polygon class="st0" points="300,1400 300,1500 400,1500 400,1400 	"/>
</g>
<g>
	<polyline class="st0" points="400,1400 400,1500 500,1500 500,1400 	"/>
	<polygon class="st0" points="400,1400 400,1500 500,1500 500,1400 	"/>
</g>
<g>
	<polyline class="st0" points="500,1400 500,1500 600,1500 600,1400 	"/>
	<polygon class="st0" points="500,1400 500,1500 600,1500 600,1400 	"/>
</g>
<g>
	<polyline class="st0" points="600,1400 600,1500 700,1500 700,1400 	"/>
	<polygon class="st0" points="600,1400 600,1500 700,1500 700,1400 	"/>
</g>
<g>
	<polyline class="st0" points="700,1400 700,1500 800,1500 800,1400 	"/>
	<polygon class="st0" points="700,1400 700,1500 800,1500 800,1400 	"/>
</g>
<g>
	<polyline class="st0" points="800,1400 800,1500 900,1500 900,1400 	"/>
	<polygon class="st0" points="800,1400 800,1500 900,1500 900,1400 	"/>
</g>
<g>
	<polyline class="st0" points="900,1400 900,1500 1000,1500 1000,1400 	"/>
	<polygon class="st0" points="900,1400 900,1500 1000,1500 1000,1400 	"/>
</g>
<g>
	<polyline class="st0" points="1000,1400 1000,1500 1100,1500 1100,1400 	"/>
	<polygon class="st0" points="1000,1400 1000,1500 1100,1500 1100,1400 	"/>
</g>
<g>
	<polyline class="st1" points="1100,1400 1100,1500 1200,1500 1200,1400 	"/>
	<polygon class="st1" points="1100,1400 1100,1500 1200,1500 1200,1400 	"/>
	<text transform="matrix(1 0 0 1 1130 1470)" class="st2 st3">g</text>
</g>
<g>
	<polyline class="st0" points="1200,1400 1200,1500 1300,1500 1300,1400 	"/>
	<polygon class="st0" points="1200,1400 1200,1500 1300,1500 1300,1400 	"/>
</g>
<g>
	<polyline class="st0" points="1300,1400 1300,1500 1400,1500 1400,1400 	"/>
	<polygon class="st0" points="1300,1400 1300,1500 1400,1500 1400,1400 	"/>
</g>
<g>
	<polyline class="st1" points="1400,1400 1400,1500 1500,1500 1500,1400 	"/>
	<polygon class="st1" points="1400,1400 1400,1500 1500,1500 1500,1400 	"/>
	<text transform="matrix(1 0 0 1 1430 1470)" class="st2 st3">c</text>
	<text transform="matrix(1 0 0 1 1411 1433)" class="st4 st5">20</text>
</g>
<g>
	<polyline class="st1" points="1500,1400 1500,1500 1600,1500 1600,1400 	"/>
	<polygon class="st1" points="1500,1400 1500,1500 1600,1500 1600,1400 	"/>
	<text transform="matrix(1 0 0 1 1530 1470)" class="st2 st3">i</text>
</g>
<g>
	<polyline class="st1" points="1600,1400 1600,1500 1700,1500 1700,1400 	"/>
	<polygon class="st1" points="1600,1400 1600,1500 1700,1500 1700,1400 	"/>
	<text transform="matrix(1 0 0 1 1630 1470)" class="st2 st3">v</text>
</g>
<g>
	<polyline class="st1" points="1700,1400 1700,1500 1800,1500 1800,1400 	"/>
	<polygon class="st1" points="1700,1400 1700,1500 1800,1500 1800,1400 	"/>
	<text transform="matrix(1 0 0 1 1730 1470)" class="st2 st3">i</text>
</g>
<g>
	<polyline class="st1" points="1800,1400 1800,1500 1900,1500 1900,1400 	"/>
	<polygon class="st1" points="1800,1400 1800,1500 1900,1500 1900,1400 	"/>
	<text transform="matrix(1 0 0 1 1830 1470)" class="st2 st3">l</text>
</g>
<g>
	<polyline class="st0" points="1900,1400 1900,1500 2000,1500 2000,1400 	"/>
	<polygon class="st0" points="1900,1400 1900,1500 2000,1500 2000,1400 	"/>
</g>
<g>
	<polyline class="st0" points="0,1500 0,1600 100,1600 100,1500 	"/>
	<polygon class="st0" points="0,1500 0,1600 100,1600 100,1500 	"/>
</g>
<g>
	<polyline class="st0" points="100,1500 100,1600 200,1600 200,1500 	"/>
	<polygon class="st0" points="100,1500 100,1600 200,1600 200,1500 	"/>
</g>
<g>
	<polyline class="st0" points="200,1500 200,1600 300,1600 300,1500 	"/>
	<polygon class="st0" points="200,1500 200,1600 300,1600 300,1500 	"/>
</g>
<g>
	<polyline class="st0" points="300,1500 300,1600 400,1600 400,1500 	"/>
	<polygon class="st0" points="300,1500 300,1600 400,1600 400,1500 	"/>
</g>
<g>
	<polyline class="st0" points="400,1500 400,1600 500,1600 500,1500 	"/>
	<polygon class="st0" points="400,1500 400,1600 500,1600 500,1500 	"/>
</g>
<g>
	<polyline class="st0" points="500,1500 500,1600 600,1600 600,1500 	"/>
	<polygon class="st0" points="500,1500 500,1600 600,1600 600,1500 	"/>
</g>
<g>
	<polyline class="st0" points="600,1500 600,1600 700,1600 700,1500 	"/>
	<polygon class="st0" points="600,1500 600,1600 700,1600 700,1500 	"/>
</g>
<g>
	<polyline class="st0" points="700,1500 700,1600 800,1600 800,1500 	"/>
	<polygon class="st0" points="700,1500 700,1600 800,1600 800,1500 	"/>
</g>
<g>
	<polyline class="st0" points="800,1500 800,1600 900,1600 900,1500 	"/>
	<polygon class="st0" points="800,1500 800,1600 900,1600 900,1500 	"/>
</g>
<g>
	<polyline class="st0" points="900,1500 900,1600 1000,1600 1000,1500 	"/>
	<polygon class="st0" points="900,1500 900,1600 1000,1600 1000,1500 	"/>
</g>
<g>
	<polyline class="st0" points="1000,1500 1000,1600 1100,1600 1100,1500 	"/>
	<polygon class="st0" points="1000,1500 1000,1600 1100,1600 1100,1500 	"/>
</g>
<g>
	<polyline class="st0" points="1100,1500 1100,1600 1200,1600 1200,1500 	"/>
	<polygon class="st0" points="1100,1500 1100,1600 1200,1600 1200,1500 	"/>
</g>
<g>
	<polyline class="st0" points="1200,1500 1200,1600 1300,1600 1300,1500 	"/>
	<polygon class="st0" points="1200,1500 1200,1600 1300,1600 1300,1500 	"/>
</g>
<g>
	<polyline class="st0" points="1300,1500 1300,1600 1400,1600 1400,1500 	"/>
	<polygon class="st0" points="1300,1500 1300,1600 1400,1600 1400,1500 	"/>
</g>
<g>
	<polyline class="st0" points="1400,1500 1400,1600 1500,1600 1500,1500 	"/>
	<polygon class="st0" points="1400,1500 1400,1600 1500,1600 1500,1500 	"/>
</g>
<g>
	<polyline class="st0" points="1500,1500 1500,1600 1600,1600 1600,1500 	"/>
	<polygon class="st0" points="1500,1500 1500,1600 1600,1600 1600,1500 	"/>
</g>
<g>
	<polyline class="st0" points="1600,1500 1600,1600 1700,1600 1700,1500 	"/>
	<polygon class="st0" points="1600,1500 1600,1600 1700,1600 1700,1500 	"/>
</g>
<g>
	<polyline class="st0" points="1700,1500 1700,1600 1800,1600 1800,1500 	"/>
	<polygon class="st0" points="1700,1500 1700,1600 1800,1600 1800,1500 	"/>
</g>
<g>
	<polyline class="st1" points="1800,1500 1800,1600 1900,1600 1900,1500 	"/>
	<polygon class="st1" points="1800,1500 1800,1600 1900,1600 1900,1500 	"/>
	<text transform="matrix(1 0 0 1 1830 1570)" class="st2 st3">a</text>
</g>
<g>
	<polyline class="st0" points="1900,1500 1900,1600 2000,1600 2000,1500 	"/>
	<polygon class="st0" points="1900,1500 1900,1600 2000,1600 2000,1500 	"/>
</g>
<g>
	<polyline class="st0" points="0,1600 0,1700 100,1700 100,1600 	"/>
	<polygon class="st0" points="0,1600 0,1700 100,1700 100,1600 	"/>
</g>
<g>
	<polyline class="st0" points="100,1600 100,1700 200,1700 200,1600 	"/>
	<polygon class="st0" points="100,1600 100,1700 200,1700 200,1600 	"/>
</g>
<g>
	<polyline class="st0" points="200,1600 200,1700 300,1700 300,1600 	"/>
	<polygon class="st0" points="200,1600 200,1700 300,1700 300,1600 	"/>
</g>
<g>
	<polyline class="st0" points="300,1600 300,1700 400,1700 400,1600 	"/>
	<polygon class="st0" points="300,1600 300,1700 400,1700 400,1600 	"/>
</g>
<g>
	<polyline class="st0" points="400,1600 400,1700 500,1700 500,1600 	"/>
	<polygon class="st0" points="400,1600 400,1700 500,1700 500,1600 	"/>
</g>
<g>
	<polyline class="st0" points="500,1600 500,1700 600,1700 600,1600 	"/>
	<polygon class="st0" points="500,1600 500,1700 600,1700 600,1600 	"/>
</g>
<g>
	<polyline class="st0" points="600,1600 600,1700 700,1700 700,1600 	"/>
	<polygon class="st0" points="600,1600 600,1700 700,1700 700,1600 	"/>
</g>
<g>
	<polyline class="st0" points="700,1600 700,1700 800,1700 800,1600 	"/>
	<polygon class="st0" points="700,1600 700,1700 800,1700 800,1600 	"/>
</g>
<g>
	<polyline class="st0" points="800,1600 800,1700 900,1700 900,1600 	"/>
	<polygon class="st0" points="800,1600 800,1700 900,1700 900,1600 	"/>
</g>
<g>
	<polyline class="st0" points="900,1600 900,1700 1000,1700 1000,1600 	"/>
	<polygon class="st0" points="900,1600 900,1700 1000,1700 1000,1600 	"/>
</g>
<g>
	<polyline class="st0" points="1000,1600 1000,1700 1100,1700 1100,1600 	"/>
	<polygon class="st0" points="1000,1600 1000,1700 1100,1700 1100,1600 	"/>
</g>
<g>
	<polyline class="st0" points="1100,1600 1100,1700 1200,1700 1200,1600 	"/>
	<polygon class="st0" points="1100,1600 1100,1700 1200,1700 1200,1600 	"/>
</g>
<g>
	<polyline class="st0" points="1200,1600 1200,1700 1300,1700 1300,1600 	"/>
	<polygon class="st0" points="1200,1600 1200,1700 1300,1700 1300,1600 	"/>
</g>
<g>
	<polyline class="st0" points="1300,1600 1300,1700 1400,1700 1400,1600 	"/>
	<polygon class="st0" points="1300,1600 1300,1700 1400,1700 1400,1600 	"/>
</g>
<g>
	<polyline class="st0" points="1400,1600 1400,1700 1500,1700 1500,1600 	"/>
	<polygon class="st0" points="1400,1600 1400,1700 1500,1700 1500,1600 	"/>
</g>
<g>
	<polyline class="st1" points="1500,1600 1500,1700 1600,1700 1600,1600 	"/>
	<polygon class="st1" points="1500,1600 1500,1700 1600,1700 1600,1600 	"/>
	<text transform="matrix(1 0 0 1 1530 1670)" class="st2 st3">w</text>
	<text transform="matrix(1 0 0 1 1511 1633)" class="st4 st5">21</text>
</g>
<g>
	<polyline class="st0" points="1600,1600 1600,1700 1700,1700 1700,1600 	"/>
	<polygon class="st0" points="1600,1600 1600,1700 1700,1700 1700,1600 	"/>
</g>
<g>
	<polyline class="st0" points="1700,1600 1700,1700 1800,1700 1800,1600 	"/>
	<polygon class="st0" points="1700,1600 1700,1700 1800,1700 1800,1600 	"/>
</g>
<g>
	<polyline class="st1" points="1800,1600 1800,1700 1900,1700 1900,1600 	"/>
	<polygon class="st1" points="1800,1600 1800,1700 1900,1700 1900,1600 	"/>
	<text transform="matrix(1 0 0 1 1830 1670)" class="st2 st3">x</text>
</g>
<g>
	<polyline class="st0" points="1900,1600 1900,1700 2000,1700 2000,1600 	"/>
	<polygon class="st0" points="1900,1600 1900,1700 2000,1700 2000,1600 	"/>
</g>
<g>
	<polyline class="st0" points="0,1700 0,1800 100,1800 100,1700 	"/>
	<polygon class="st0" points="0,1700 0,1800 100,1800 100,1700 	"/>
</g>
<g>
	<polyline class="st0" points="100,1700 100,1800 200,1800 200,1700 	"/>
	<polygon class="st0" points="100,1700 100,1800 200,1800 200,1700 	"/>
</g>
<g>
	<polyline class="st0" points="200,1700 200,1800 300,1800 300,1700 	"/>
	<polygon class="st0" points="200,1700 200,1800 300,1800 300,1700 	"/>
</g>
<g>
	<polyline class="st0" points="300,1700 300,1800 400,1800 400,1700 	"/>
	<polygon class="st0" points="300,1700 300,1800 400,1800 400,1700 	"/>
</g>
<g>
	<polyline class="st0" points="400,1700 400,1800 500,1800 500,1700 	"/>
	<polygon class="st0" points="400,1700 400,1800 500,1800 500,1700 	"/>
</g>
<g>
	<polyline class="st0" points="500,1700 500,1800 600,1800 600,1700 	"/>
	<polygon class="st0" points="500,1700 500,1800 600,1800 600,1700 	"/>
</g>
<g>
	<polyline class="st0" points="600,1700 600,1800 700,1800 700,1700 	"/>
	<polygon class="st0" points="600,1700 600,1800 700,1800 700,1700 	"/>
</g>
<g>
	<polyline class="st0" points="700,1700 700,1800 800,1800 800,1700 	"/>
	<polygon class="st0" points="700,1700 700,1800 800,1800 800,1700 	"/>
</g>
<g>
	<polyline class="st0" points="800,1700 800,1800 900,1800 900,1700 	"/>
	<polygon class="st0" points="800,1700 800,1800 900,1800 900,1700 	"/>
</g>
<g>
	<polyline class="st0" points="900,1700 900,1800 1000,1800 1000,1700 	"/>
	<polygon class="st0" points="900,1700 900,1800 1000,1800 1000,1700 	"/>
</g>
<g>
	<polyline class="st0" points="1000,1700 1000,1800 1100,1800 1100,1700 	"/>
	<polygon class="st0" points="1000,1700 1000,1800 1100,1800 1100,1700 	"/>
</g>
<g>
	<polyline class="st0" points="1100,1700 1100,1800 1200,1800 1200,1700 	"/>
	<polygon class="st0" points="1100,1700 1100,1800 1200,1800 1200,1700 	"/>
</g>
<g>
	<polyline class="st0" points="1200,1700 1200,1800 1300,1800 1300,1700 	"/>
	<polygon class="st0" points="1200,1700 1200,1800 1300,1800 1300,1700 	"/>
</g>
<g>
	<polyline class="st0" points="1300,1700 1300,1800 1400,1800 1400,1700 	"/>
	<polygon class="st0" points="1300,1700 1300,1800 1400,1800 1400,1700 	"/>
</g>
<g>
	<polyline class="st0" points="1400,1700 1400,1800 1500,1800 1500,1700 	"/>
	<polygon class="st0" points="1400,1700 1400,1800 1500,1800 1500,1700 	"/>
</g>
<g>
	<polyline class="st1" points="1500,1700 1500,1800 1600,1800 1600,1700 	"/>
	<polygon class="st1" points="1500,1700 1500,1800 1600,1800 1600,1700 	"/>
	<text transform="matrix(1 0 0 1 1530 1770)" class="st2 st3">a</text>
	<text transform="matrix(1 0 0 1 1511 1733)" class="st4 st5">22</text>
</g>
<g>
	<polyline class="st1" points="1600,1700 1600,1800 1700,1800 1700,1700 	"/>
	<polygon class="st1" points="1600,1700 1600,1800 1700,1800 1700,1700 	"/>
	<text transform="matrix(1 0 0 1 1630 1770)" class="st2 st3">w</text>
</g>
<g>
	<polyline class="st1" points="1700,1700 1700,1800 1800,1800 1800,1700 	"/>
	<polygon class="st1" points="1700,1700 1700,1800 1800,1800 1800,1700 	"/>
	<text transform="matrix(1 0 0 1 1730 1770)" class="st2 st3">a</text>
</g>
<g>
	<polyline class="st1" points="1800,1700 1800,1800 1900,1800 1900,1700 	"/>
	<polygon class="st1" points="1800,1700 1800,1800 1900,1800 1900,1700 	"/>
	<text transform="matrix(1 0 0 1 1830 1770)" class="st2 st3">y</text>
</g>
<g>
	<polyline class="st0" points="1900,1700 1900,1800 2000,1800 2000,1700 	"/>
	<polygon class="st0" points="1900,1700 1900,1800 2000,1800 2000,1700 	"/>
</g>
<g>
	<polyline class="st0" points="0,1800 0,1900 100,1900 100,1800 	"/>
	<polygon class="st0" points="0,1800 0,1900 100,1900 100,1800 	"/>
</g>
<g>
	<polyline class="st0" points="100,1800 100,1900 200,1900 200,1800 	"/>
	<polygon class="st0" points="100,1800 100,1900 200,1900 200,1800 	"/>
</g>
<g>
	<polyline class="st0" points="200,1800 200,1900 300,1900 300,1800 	"/>
	<polygon class="st0" points="200,1800 200,1900 300,1900 300,1800 	"/>
</g>
<g>
	<polyline class="st0" points="300,1800 300,1900 400,1900 400,1800 	"/>
	<polygon class="st0" points="300,1800 300,1900 400,1900 400,1800 	"/>
</g>
<g>
	<polyline class="st0" points="400,1800 400,1900 500,1900 500,1800 	"/>
	<polygon class="st0" points="400,1800 400,1900 500,1900 500,1800 	"/>
</g>
<g>
	<polyline class="st0" points="500,1800 500,1900 600,1900 600,1800 	"/>
	<polygon class="st0" points="500,1800 500,1900 600,1900 600,1800 	"/>
</g>
<g>
	<polyline class="st0" points="600,1800 600,1900 700,1900 700,1800 	"/>
	<polygon class="st0" points="600,1800 600,1900 700,1900 700,1800 	"/>
</g>
<g>
	<polyline class="st0" points="700,1800 700,1900 800,1900 800,1800 	"/>
	<polygon class="st0" points="700,1800 700,1900 800,1900 800,1800 	"/>
</g>
<g>
	<polyline class="st0" points="800,1800 800,1900 900,1900 900,1800 	"/>
	<polygon class="st0" points="800,1800 800,1900 900,1900 900,1800 	"/>
</g>
<g>
	<polyline class="st0" points="900,1800 900,1900 1000,1900 1000,1800 	"/>
	<polygon class="st0" points="900,1800 900,1900 1000,1900 1000,1800 	"/>
</g>
<g>
	<polyline class="st0" points="1000,1800 1000,1900 1100,1900 1100,1800 	"/>
	<polygon class="st0" points="1000,1800 1000,1900 1100,1900 1100,1800 	"/>
</g>
<g>
	<polyline class="st0" points="1100,1800 1100,1900 1200,1900 1200,1800 	"/>
	<polygon class="st0" points="1100,1800 1100,1900 1200,1900 1200,1800 	"/>
</g>
<g>
	<polyline class="st0" points="1200,1800 1200,1900 1300,1900 1300,1800 	"/>
	<polygon class="st0" points="1200,1800 1200,1900 1300,1900 1300,1800 	"/>
</g>
<g>
	<polyline class="st0" points="1300,1800 1300,1900 1400,1900 1400,1800 	"/>
	<polygon class="st0" points="1300,1800 1300,1900 1400,1900 1400,1800 	"/>
</g>
<g>
	<polyline class="st0" points="1400,1800 1400,1900 1500,1900 1500,1800 	"/>
	<polygon class="st0" points="1400,1800 1400,1900 1500,1900 1500,1800 	"/>
</g>
<g>
	<polyline class="st1" points="1500,1800 1500,1900 1600,1900 1600,1800 	"/>
	<polygon class="st1" points="1500,1800 1500,1900 1600,1900 1600,1800 	"/>
	<text transform="matrix(1 0 0 1 1530 1870)" class="st2 st3">r</text>
</g>
<g>
	<polyline class="st0" points="1600,1800 1600,1900 1700,1900 1700,1800 	"/>
	<polygon class="st0" points="1600,1800 1600,1900 1700,1900 1700,1800 	"/>
</g>
<g>
	<polyline class="st0" points="1700,1800 1700,1900 1800,1900 1800,1800 	"/>
	<polygon class="st0" points="1700,1800 1700,1900 1800,1900 1800,1800 	"/>
</g>
<g>
	<polyline class="st0" points="1800,1800 1800,1900 1900,1900 1900,1800 	"/>
	<polygon class="st0" points="1800,1800 1800,1900 1900,1900 1900,1800 	"/>
</g>
<g>
	<polyline class="st0" points="1900,1800 1900,1900 2000,1900 2000,1800 	"/>
	<polygon class="st0" points="1900,1800 1900,1900 2000,1900 2000,1800 	"/>
</g>
<g>
	<polyline class="st0" points="0,1900 0,2000 100,2000 100,1900 	"/>
	<polygon class="st0" points="0,1900 0,2000 100,2000 100,1900 	"/>
</g>
<g>
	<polyline class="st0" points="100,1900 100,2000 200,2000 200,1900 	"/>
	<polygon class="st0" points="100,1900 100,2000 200,2000 200,1900 	"/>
</g>
<g>
	<polyline class="st0" points="200,1900 200,2000 300,2000 300,1900 	"/>
	<polygon class="st0" points="200,1900 200,2000 300,2000 300,1900 	"/>
</g>
<g>
	<polyline class="st0" points="300,1900 300,2000 400,2000 400,1900 	"/>
	<polygon class="st0" points="300,1900 300,2000 400,2000 400,1900 	"/>
</g>
<g>
	<polyline class="st0" points="400,1900 400,2000 500,2000 500,1900 	"/>
	<polygon class="st0" points="400,1900 400,2000 500,2000 500,1900 	"/>
</g>
<g>
	<polyline class="st0" points="500,1900 500,2000 600,2000 600,1900 	"/>
	<polygon class="st0" points="500,1900 500,2000 600,2000 600,1900 	"/>
</g>
<g>
	<polyline class="st0" points="600,1900 600,2000 700,2000 700,1900 	"/>
	<polygon class="st0" points="600,1900 600,2000 700,2000 700,1900 	"/>
</g>
<g>
	<polyline class="st0" points="700,1900 700,2000 800,2000 800,1900 	"/>
	<polygon class="st0" points="700,1900 700,2000 800,2000 800,1900 	"/>
</g>
<g>
	<polyline class="st0" points="800,1900 800,2000 900,2000 900,1900 	"/>
	<polygon class="st0" points="800,1900 800,2000 900,2000 900,1900 	"/>
</g>
<g>
	<polyline class="st0" points="900,1900 900,2000 1000,2000 1000,1900 	"/>
	<polygon class="st0" points="900,1900 900,2000 1000,2000 1000,1900 	"/>
</g>
<g>
	<polyline class="st0" points="1000,1900 1000,2000 1100,2000 1100,1900 	"/>
	<polygon class="st0" points="1000,1900 1000,2000 1100,2000 1100,1900 	"/>
</g>
<g>
	<polyline class="st0" points="1100,1900 1100,2000 1200,2000 1200,1900 	"/>
	<polygon class="st0" points="1100,1900 1100,2000 1200,2000 1200,1900 	"/>
</g>
<g>
	<polyline class="st0" points="1200,1900 1200,2000 1300,2000 1300,1900 	"/>
	<polygon class="st0" points="1200,1900 1200,2000 1300,2000 1300,1900 	"/>
</g>
<g>
	<polyline class="st0" points="1300,1900 1300,2000 1400,2000 1400,1900 	"/>
	<polygon class="st0" points="1300,1900 1300,2000 1400,2000 1400,1900 	"/>
</g>
<g>
	<polyline class="st0" points="1400,1900 1400,2000 1500,2000 1500,1900 	"/>
	<polygon class="st0" points="1400,1900 1400,2000 1500,2000 1500,1900 	"/>
</g>
<g>
	<polyline class="st0" points="1500,1900 1500,2000 1600,2000 1600,1900 	"/>
	<polygon class="st0" points="1500,1900 1500,2000 1600,2000 1600,1900 	"/>
</g>
<g>
	<polyline class="st0" points="1600,1900 1600,2000 1700,2000 1700,1900 	"/>
	<polygon class="st0" points="1600,1900 1600,2000 1700,2000 1700,1900 	"/>
</g>
<g>
	<polyline class="st0" points="1700,1900 1700,2000 1800,2000 1800,1900 	"/>
	<polygon class="st0" points="1700,1900 1700,2000 1800,2000 1800,1900 	"/>
</g>
<g>
	<polyline class="st0" points="1800,1900 1800,2000 1900,2000 1900,1900 	"/>
	<polygon class="st0" points="1800,1900 1800,2000 1900,2000 1900,1900 	"/>
</g>
<g>
	<polyline class="st0" points="1900,1900 1900,2000 2000,2000 2000,1900 	"/>
	<polygon class="st0" points="1900,1900 1900,2000 2000,2000 2000,1900 	"/>
</g>
</svg>
